<svg id="Layer_1" enable-background="new 0 0 64 64" height="512" viewBox="0 0 64 64" width="512" xmlns="http://www.w3.org/2000/svg"><g><g><path d="m9 57 12-6v-6l-12 6z" fill="#808080"/><path d="m21 63v-6l-12 6z" fill="#808080"/><g fill="#b3b3b3"><path d="m9 63 12-6v-6l-12 6z"/><path d="m9 51 12-6v-6l-12 6z"/><path d="m9 33v6l12-6v-6z"/></g><path d="m9 27v6l12-6z" fill="#808080"/><path d="m9 45 12-6v-6l-12 6z" fill="#808080"/><path d="m11 20h8v7h-8z" fill="#f8cc6a"/><path d="m30 19h4v8h-4z" fill="#b3b3b3"/><path d="m45 20h10v7h-10z" fill="#6bcddd"/><path d="m46 0h2v20h-2z" fill="#ad9e91"/><path d="m48 0h4v20h-4z" fill="#998675"/><path d="m52 0h2v20h-2z" fill="#ad9e91"/><path d="m43 27h14v36h-14z" fill="#3fa1c4"/><path d="m28 27h8v36h-8z" fill="#f4aa06"/><path d="m57 54s-3 3-7 3-7-3-7-3v9h14z" fill="#308fb5"/><path d="m36 54s-1 3-4 3-4-3-4-3v9h8z" fill="#dd9f22"/></g><g fill="#252525"><path d="m57 26h-1v-6c0-.552-.448-1-1-1v-14c0-.552-.448-1-1-1s-1 .448-1 1v14h-2v-7c0-.552-.448-1-1-1s-1 .448-1 1v7h-2v-14c0-.552-.448-1-1-1s-1 .448-1 1v14c-.552 0-1 .448-1 1v6h-1c-.552 0-1 .448-1 1v36c0 .552.448 1 1 1h14c.552 0 1-.448 1-1v-36c0-.552-.448-1-1-1zm-11-5h8v5h-8zm10 41h-12v-34h12z"/><path d="m36 26h-1v-7c0-.552-.448-1-1-1h-1v-17c0-.552-.448-1-1-1s-1 .448-1 1v17h-1c-.552 0-1 .448-1 1v7h-1c-.552 0-1 .448-1 1v36c0 .552.448 1 1 1h8c.552 0 1-.448 1-1v-36c0-.552-.448-1-1-1zm-5-6h2v6h-2zm4 42h-6v-34h6z"/><path d="m22.293 3.293c-.169.169-4.052 4.204-5.196 15.707h-1.079c.199-11.756 3.762-17.366 3.815-17.447.305-.459.18-1.079-.279-1.385-.46-.307-1.081-.183-1.387.277-.085.129-1.14 1.754-2.167 5.009v-4.454c0-.552-.448-1-1-1s-1 .448-1 1v4.454c-1.027-3.255-2.082-4.88-2.168-5.009-.306-.458-.926-.582-1.383-.278-.459.305-.585.924-.282 1.385.037.057 3.616 5.666 3.814 17.448h-1.078c-1.144-11.503-5.027-15.538-5.196-15.707-.388-.389-1.016-.389-1.407-.002-.391.385-.395 1.017-.012 1.411.036.037 3.521 3.764 4.607 14.319-.5.055-.895.464-.895.979v6h-1c-.552 0-1 .448-1 1v36c0 .552.448 1 1 1h12c.552 0 1-.448 1-1v-36c0-.552-.448-1-1-1h-1v-6c0-.515-.395-.924-.895-.979 1.082-10.513 4.543-14.252 4.607-14.319.386-.391.385-1.021-.004-1.41-.392-.39-1.024-.39-1.415.001zm-5.529 24.707-6.764 3.382v-3.382zm3.236 16.382-10 5v-3.764l10-5zm-10 7.236 10-5v3.764l-10 5zm10-13.236-10 5v-3.764l10-5zm-10 19.236 10-5v3.764l-10 5zm10-25.236-10 5v-3.764l10-5zm-6.764 29.618 6.764-3.382v3.382zm-1.236-36v-5h6v5z"/><path d="m32 35c-.552 0-1 .448-1 1v15c0 .552.448 1 1 1s1-.448 1-1v-15c0-.552-.448-1-1-1z"/><circle cx="32" cy="32" r="1"/><circle cx="50" cy="1" r="1"/><circle cx="46" cy="1" r="1"/><circle cx="54" cy="1" r="1"/><path d="m47 30c-.552 0-1 .448-1 1v15c0 .552.448 1 1 1s1-.448 1-1v-15c0-.552-.448-1-1-1z"/><circle cx="47" cy="50" r="1"/><path d="m50 9c.552 0 1-.448 1-1v-3c0-.552-.448-1-1-1s-1 .448-1 1v3c0 .552.448 1 1 1z"/></g></g></svg>