<?xml version="1.0" encoding="UTF-8"?>
<svg xmlns="http://www.w3.org/2000/svg" xmlns:xlink="http://www.w3.org/1999/xlink" version="1.1" id="Capa_1" x="0px" y="0px" viewBox="0 0 512 512" style="enable-background:new 0 0 512 512;" xml:space="preserve" width="512" height="512">
<g id="XMLID_487_">
	
		<path id="XMLID_2150_" style="fill:none;stroke:#020288;stroke-width:20;stroke-linecap:round;stroke-linejoin:round;stroke-miterlimit:10;" d="&#10;&#9;&#9;M411.633,341.348v-50.205c16.629,0,30.122-13.495,30.122-30.122c0-16.628-13.495-30.122-30.122-30.122c-33.524,0-32.116,0-65.633,0&#10;&#9;&#9;"/>
	
		<path id="XMLID_2161_" style="fill:none;stroke:#020288;stroke-width:20;stroke-linecap:round;stroke-linejoin:round;stroke-miterlimit:10;" d="&#10;&#9;&#9;M236.39,243.69l4.548-73.042l50.204-60.24l-219.512,0.005c-11.617,0-20.815,9.82-20.041,21.417l14.639,238.685"/>
	
		<path id="XMLID_2160_" style="fill:none;stroke:#020288;stroke-width:20;stroke-linecap:round;stroke-linejoin:round;stroke-miterlimit:10;" d="&#10;&#9;&#9;M60.586,285.887C32.18,283.065,10,259.088,10,229.939v-64.306c0-8.314,6.748-15.062,15.06-15.062h27.783"/>
	
		<path id="XMLID_2157_" style="fill:none;stroke:#020288;stroke-width:20;stroke-linecap:round;stroke-linejoin:round;stroke-miterlimit:10;" d="&#10;&#9;&#9;M223.236,110.409c-8.702-29.329-35.843-50.205-67.363-50.205c-31.83,0-58.729,21.177-67.363,50.205"/>
	
		<line id="XMLID_2156_" style="fill:none;stroke:#020288;stroke-width:20;stroke-linecap:round;stroke-linejoin:round;stroke-miterlimit:10;" x1="155.873" y1="60.204" x2="155.873" y2="20.041"/>
	
		<line id="XMLID_2155_" style="fill:none;stroke:#020288;stroke-width:20;stroke-linecap:round;stroke-linejoin:round;stroke-miterlimit:10;" x1="180" y1="20.041" x2="130" y2="20.041"/>
	
		<line id="XMLID_2154_" style="fill:none;stroke:#020288;stroke-width:20;stroke-linecap:round;stroke-linejoin:round;stroke-miterlimit:10;" x1="146.241" y1="160.612" x2="146.241" y2="321.265"/>
	
		<line id="XMLID_2153_" style="fill:none;stroke:#020288;stroke-width:20;stroke-linecap:round;stroke-linejoin:round;stroke-miterlimit:10;" x1="106.078" y1="160.612" x2="106.078" y2="321.265"/>
	
		<line id="XMLID_2152_" style="fill:none;stroke:#020288;stroke-width:20;stroke-linecap:round;stroke-linejoin:round;stroke-miterlimit:10;" x1="106.078" y1="160.612" x2="106.078" y2="321.265"/>
	
		<line id="XMLID_2151_" style="fill:none;stroke:#020288;stroke-width:20;stroke-linecap:round;stroke-linejoin:round;stroke-miterlimit:10;" x1="186.404" y1="160.612" x2="186.404" y2="321.265"/>
	<path id="XMLID_880_" style="fill:#A4FCC4;" d="M361.388,341.348H251.02v-41.467c-17.301-4.454-30.122-20.188-30.122-38.86&#10;&#9;&#9;c0-22.123,17.999-40.122,40.122-40.122h90.367c22.123,0,40.122,17.999,40.122,40.122c0,18.672-12.821,34.406-30.122,38.86V341.348z&#10;&#9;&#9;"/>
	
		<line id="XMLID_2146_" style="fill:none;stroke:#020288;stroke-width:20;stroke-linecap:round;stroke-linejoin:round;stroke-miterlimit:10;" x1="250.98" y1="381.51" x2="250.98" y2="381.51"/>
	
		<line id="XMLID_2145_" style="fill:none;stroke:#020288;stroke-width:20;stroke-linecap:round;stroke-linejoin:round;stroke-miterlimit:10;" x1="291.143" y1="381.51" x2="291.143" y2="381.51"/>
	
		<line id="XMLID_2144_" style="fill:none;stroke:#020288;stroke-width:20;stroke-linecap:round;stroke-linejoin:round;stroke-miterlimit:10;" x1="331.306" y1="381.51" x2="331.306" y2="381.51"/>
	
		<path id="XMLID_2198_" style="fill:none;stroke:#020288;stroke-width:20;stroke-linecap:round;stroke-linejoin:round;stroke-miterlimit:10;" d="&#10;&#9;&#9;M286.122,491.959c-13.863,0-25.102-11.239-25.102-25.102l0,0c0-13.863,11.239-25.102,25.102-25.102h100.408&#10;&#9;&#9;c13.863,0,25.102,11.239,25.102,25.102l0,0c0,13.863-11.239,25.102-25.102,25.102"/>
	
		<path id="XMLID_2149_" style="fill:none;stroke:#020288;stroke-width:20;stroke-linecap:round;stroke-linejoin:round;stroke-miterlimit:10;" d="&#10;&#9;&#9;M461.837,381.51h20.082c11.091,0,20.082,8.991,20.082,20.082l0,0c0,11.091-8.991,20.082-20.082,20.082h-20.082"/>
	<path id="XMLID_878_" style="fill:#A4FCC4;" d="M210.816,471.877V371.47c0-3.507,0.605-6.87,1.707-10H63.156&#10;&#9;&#9;c-14.763,0-27.242,10.568-29.675,25.134l-13.385,80.338c-3.055,18.342,11.103,35.018,29.675,35.018h215.082l-3.333-10h-30.622&#10;&#9;&#9;C219.807,491.959,210.816,482.968,210.816,471.877z"/>
	
		<path id="XMLID_2159_" style="fill:none;stroke:#020288;stroke-width:20;stroke-linecap:round;stroke-linejoin:round;stroke-miterlimit:10;" d="&#10;&#9;&#9;M130.49,430.756c0,11.09,8.99,20.081,20.081,20.081c11.092,0,20.082-8.991,20.082-20.081c0-11.092-8.99-20.082-20.082-20.082&#10;&#9;&#9;C139.48,410.674,130.49,419.664,130.49,430.756z"/>
	
		<line id="XMLID_2158_" style="fill:none;stroke:#020288;stroke-width:20;stroke-linecap:round;stroke-linejoin:round;stroke-miterlimit:10;" x1="90.286" y1="430.756" x2="80.286" y2="430.756"/>
	
		<path id="XMLID_2147_" style="fill:none;stroke:#020288;stroke-width:20;stroke-linecap:round;stroke-linejoin:round;stroke-miterlimit:10;" d="&#10;&#9;&#9;M441.756,491.959H230.898c-11.091,0-20.082-8.991-20.082-20.082V371.47c0-16.636,13.486-30.122,30.122-30.122h190.776&#10;&#9;&#9;c16.636,0,30.122,13.486,30.122,30.122v100.409C461.837,482.969,452.846,491.959,441.756,491.959z"/>
</g>















</svg>
