<svg id="&#x421;&#x43B;&#x43E;&#x439;_1" enable-background="new 0 0 512 512" height="512" viewBox="0 0 512 512" width="512" xmlns="http://www.w3.org/2000/svg"><g id="_x31_._smartphone_x2C__phone_x2C__electronics_x2C__appliances_x2C__technology_x2C__gadget_1_"><g><path d="m395.983 475.975c0 17.6-14.396 31.997-31.996 31.997h-215.974c-17.6 0-31.997-14.397-31.997-31.997v-423.952c0-17.6 14.397-31.996 31.997-31.996h215.975c17.6 0 31.996 14.396 31.996 31.996v423.952z" fill="#656d78"/></g><g opacity=".2"><path d="m395.983 475.975c0 17.6-14.396 31.997-31.996 31.997h-215.974c-17.6 0-31.997-14.397-31.997-31.997v-423.952c0-17.6 14.397-31.996 31.997-31.996h215.975c17.6 0 31.996 14.396 31.996 31.996v423.952z"/></g><g opacity=".2"><path d="m132.014 475.975v-423.952c0-17.6 14.397-31.996 31.997-31.996h-15.998c-17.6 0-31.997 14.396-31.997 31.996v423.951c0 17.6 14.397 31.997 31.997 31.997h15.998c-17.6.001-31.997-14.397-31.997-31.996z" fill="#fff"/></g><g opacity=".2"><path d="m380.845 475.975v-423.952c0-17.6-14.396-31.996-31.996-31.996h15.998c17.6 0 31.996 14.396 31.996 31.996v423.951c0 17.6-14.396 31.997-31.996 31.997h-15.998c17.599.001 31.996-14.397 31.996-31.996z"/></g><g><path d="m395.983 459.977c0 17.6-14.396 31.996-31.996 31.996h-215.974c-17.6 0-31.997-14.396-31.997-31.996v-423.952c0-17.6 14.397-31.996 31.997-31.996h215.975c17.6 0 31.996 14.396 31.996 31.996v423.952z" fill="#656d78"/></g><g opacity=".2"><path d="m132.014 459.977v-423.952c0-17.6 14.397-31.996 31.997-31.996h-15.998c-17.6 0-31.997 14.396-31.997 31.996v423.951c0 17.6 14.397 31.996 31.997 31.996h15.998c-17.6.001-31.997-14.396-31.997-31.995z" fill="#fff"/></g><g opacity=".2"><path d="m380.845 459.977v-423.952c0-17.6-14.396-31.996-31.996-31.996h15.998c17.6 0 31.996 14.396 31.996 31.996v423.951c0 17.6-14.396 31.996-31.996 31.996h-15.998c17.599.001 31.996-14.396 31.996-31.995z"/></g><g><path d="m116.016 36.025h279.967v383.956h-279.967z" fill="#5d9cec"/></g><g><g opacity=".3"><path d="m163.151 419.981h49.69l102.879-383.956h-49.69z" fill="#fff"/></g><g opacity=".3"><path d="m245.97 419.981 102.879-383.956h-16.569l-102.879 383.956z" fill="#fff"/></g></g><g><circle cx="256.002" cy="455.978" fill="#aab2bd" r="19.996"/></g><g opacity=".5"><path d="m244.005 455.978c0-9.671 6.87-17.74 15.994-19.592-1.292-.266-2.628-.406-3.999-.406-11.042 0-19.994 8.952-19.994 19.998s8.952 19.997 19.994 19.997c1.371 0 2.707-.141 3.999-.406-9.124-1.859-15.994-9.921-15.994-19.591z" fill="#fff"/></g><g opacity=".2"><path d="m267.999 455.978c0 9.671-6.871 17.732-15.995 19.591 1.292.266 2.628.406 4 .406 11.042 0 19.994-8.951 19.994-19.997s-8.952-19.998-19.994-19.998c-1.371 0-2.707.141-4 .406 9.124 1.851 15.995 9.921 15.995 19.592z"/></g><g id="_x31_._smartphone_x2C__phone_x2C__electronics_x2C__appliances_x2C__technology_x2C__gadget"><g><path d="m364.222 24.027c-2.203 0-4.03-1.789-4.03-4s1.749-4 3.952-4h.078c2.219 0 4 1.789 4 4s-1.782 4-4 4z" fill="#3a3847"/></g><g><path d="m348.224 24.027c-2.203 0-4.03-1.789-4.03-4s1.749-4 3.952-4h.078c2.219 0 4 1.789 4 4s-1.782 4-4 4z" fill="#3a3847"/></g><g><path d="m363.987 495.973h-215.974c-19.85 0-35.996-16.146-35.996-35.996v-423.952c0-19.85 16.146-35.996 35.996-35.996h215.975c19.85 0 35.996 16.146 35.996 35.996v423.951c-.001 19.85-16.147 35.997-35.997 35.997zm-215.974-487.945c-15.436 0-27.997 12.562-27.997 27.997v423.951c0 15.436 12.561 27.997 27.997 27.997h215.975c15.436 0 27.997-12.562 27.997-27.997v-423.951c0-15.436-12.562-27.997-27.997-27.997z" fill="#3a3847"/></g><g><path d="m363.987 511.971h-215.974c-19.85 0-35.996-16.146-35.996-35.996 0-2.21 1.789-3.999 4-3.999s4 1.789 4 3.999c0 15.437 12.561 27.997 27.997 27.997h215.975c15.436 0 27.997-12.561 27.997-27.997 0-2.21 1.789-3.999 3.999-3.999 2.211 0 4 1.789 4 3.999-.002 19.849-16.148 35.996-35.998 35.996z" fill="#3a3847"/></g><g><path d="m395.983 479.975c-2.21 0-3.999-1.789-3.999-4v-15.998c0-2.211 1.789-3.999 3.999-3.999 2.211 0 4 1.788 4 3.999v15.998c0 2.211-1.789 4-4 4z" fill="#3a3847"/></g><g><path d="m116.016 479.975c-2.21 0-4-1.789-4-4v-15.998c0-2.211 1.789-3.999 4-3.999s4 1.788 4 3.999v15.998c0 2.211-1.789 4-4 4z" fill="#3a3847"/></g><g><path d="m387.985 40.025h-263.97c-2.21 0-4-1.789-4-4s1.789-4 4-4h263.97c2.21 0 3.999 1.789 3.999 4s-1.789 4-3.999 4z" fill="#3a3847"/></g><g><path d="m387.985 423.98h-263.97c-2.21 0-4-1.788-4-3.999s1.789-3.999 4-3.999h263.97c2.21 0 3.999 1.788 3.999 3.999s-1.789 3.999-3.999 3.999z" fill="#3a3847"/></g><g><path d="m256.004 479.975c-13.233 0-23.997-10.765-23.997-23.997 0-13.233 10.764-23.997 23.997-23.997 13.229 0 23.993 10.764 23.993 23.997 0 13.232-10.764 23.997-23.993 23.997zm0-39.996c-8.823 0-15.998 7.171-15.998 15.998s7.175 15.998 15.998 15.998 15.994-7.171 15.994-15.998-7.171-15.998-15.994-15.998z" fill="#3a3847"/></g><g><path d="m283.997 24.027h-55.994c-2.21 0-3.999-1.789-3.999-4s1.789-4 3.999-4h55.994c2.211 0 3.999 1.789 3.999 4s-1.788 4-3.999 4z" fill="#3a3847"/></g><g><path d="m399.983 96.019c-2.211 0-4-1.789-4-4v-15.998c0-2.21 1.789-3.999 4-3.999s4 1.789 4 3.999v15.999c0 2.209-1.789 3.999-4 3.999z" fill="#3a3847"/></g><g><path d="m112.017 104.018c-2.211 0-4-1.789-4-4v-15.998c0-2.21 1.789-4 4-4 2.21 0 4 1.789 4 4v15.998c-.001 2.211-1.79 4-4 4z" fill="#3a3847"/></g><g><path d="m399.983 168.01c-2.211 0-4-1.789-4-4v-47.994c0-2.211 1.789-4 4-4s4 1.789 4 4v47.994c0 2.212-1.789 4-4 4z" fill="#3a3847"/></g></g></g></svg>