<svg enable-background="new 0 0 512 512" height="512" viewBox="0 0 512 512" width="512" xmlns="http://www.w3.org/2000/svg"><g id="_x33_0_Smart_Fridge"><g><path d="m407.337 21.616v321.639h-302.674v-321.639c0-8.843 7.138-15.981 15.981-15.981h270.713c8.842 0 15.98 7.138 15.98 15.981z" fill="#d2d8d8"/><path d="m147.278 5.635c-8.843 0-15.981 7.138-15.981 15.981v321.639h-26.635v-321.639c0-8.843 7.138-15.981 15.981-15.981z" fill="#fff" opacity=".5"/><path d="m407.337 21.616v321.639h-32.601v-321.639c0-8.843-7.138-15.981-15.981-15.981h32.601c8.843 0 15.981 7.138 15.981 15.981z" opacity=".15"/><path d="m177.437 208.187v-67.483c0-2.942-2.385-5.327-5.327-5.327h-35.487c-2.942 0-5.327 2.385-5.327 5.327v67.483c0 2.942 2.385 5.327 5.327 5.327h35.487c2.942 0 5.327-2.385 5.327-5.327z" fill="#a5e0fa"/><path d="m104.664 343.275v124.32c0 8.827 7.155 15.981 15.981 15.981h270.71c8.826 0 15.981-7.154 15.981-15.981v-124.32z" fill="#d2d8d8"/><path d="m147.278 483.565h-26.635c-8.843 0-15.981-7.138-15.981-15.981v-124.33h26.635v124.33c0 8.843 7.138 15.981 15.981 15.981z" fill="#fff" opacity=".5"/><path d="m407.337 343.255v124.33c0 8.843-7.138 15.981-15.981 15.981h-32.281c8.843 0 15.981-7.138 15.981-15.981v-124.33z" opacity=".15"/><path d="m161.828 483.601v17.437c0 2.942-2.385 5.327-5.327 5.327h-21.1c-2.942 0-5.327-2.385-5.327-5.327v-17.437z" fill="#7c8a8d"/><path d="m381.926 483.601v17.437c0 2.942-2.385 5.327-5.327 5.327h-21.1c-2.942 0-5.327-2.385-5.327-5.327v-17.437z" fill="#7c8a8d"/><g><path d="m172.112 130.048h-35.488c-5.873 0-10.654 4.781-10.654 10.654v67.486c0 5.873 4.781 10.654 10.654 10.654h35.488c5.873 0 10.654-4.781 10.654-10.654v-67.486c-.001-5.874-4.781-10.654-10.654-10.654zm0 78.14h-35.488v-67.486h35.488z"/><path d="m412.665 21.616c0-11.751-9.556-21.308-21.308-21.308-86.026 0-184.689 0-270.715 0-11.751 0-21.308 9.556-21.308 21.308v445.978c0 11.751 9.556 21.308 21.308 21.308h4.104v12.136c0 5.873 4.781 10.654 10.654 10.654h21.1c5.873 0 10.654-4.781 10.654-10.654v-12.136h177.692v12.136c0 5.873 4.781 10.654 10.654 10.654h21.1c5.873 0 10.654-4.781 10.654-10.654v-12.136h4.104c11.751 0 21.308-9.556 21.308-21.308-.001-56.185-.001-393.156-.001-445.978zm-256.165 479.422h-21.1v-12.11h21.1zm220.099 0h-21.1v-12.11h21.1zm25.412-479.422v316.311h-140.684v-326.965h130.031c5.873 0 10.653 4.781 10.653 10.654zm-292.022 0c0-5.873 4.781-10.654 10.654-10.654h130.031v326.965h-140.685zm292.022 445.978c0 5.873-4.781 10.654-10.654 10.654h-270.715c-5.873 0-10.654-4.781-10.654-10.654v-118.992h292.023z"/><path d="m229.365 106.077c-2.944 0-5.327 2.383-5.327 5.327v126.082c0 2.944 2.383 5.327 5.327 5.327s5.327-2.383 5.327-5.327v-126.082c0-2.945-2.382-5.327-5.327-5.327z"/><path d="m282.635 242.813c2.944 0 5.327-2.383 5.327-5.327v-126.082c0-2.944-2.383-5.327-5.327-5.327s-5.327 2.383-5.327 5.327v126.082c0 2.944 2.382 5.327 5.327 5.327z"/><path d="m181.709 380.563h148.581c2.944 0 5.327-2.383 5.327-5.327s-2.383-5.327-5.327-5.327h-148.581c-2.944 0-5.327 2.383-5.327 5.327s2.383 5.327 5.327 5.327z"/></g></g></g></svg>