<?xml version="1.0" encoding="iso-8859-1"?>
<!-- Generator: Adobe Illustrator 21.0.0, SVG Export Plug-In . SVG Version: 6.00 Build 0)  -->
<svg xmlns="http://www.w3.org/2000/svg" xmlns:xlink="http://www.w3.org/1999/xlink" version="1.1" id="Capa_1" x="0px" y="0px" viewBox="0 0 510.623 510.623" style="enable-background:new 0 0 510.623 510.623;" xml:space="preserve" width="512" height="512">
<g>
	<g>
		<path style="fill:#78777E;" d="M98.724,370.182l-45.086,48.903c-5.49,5.955-4.293,15.419,2.507,19.819l0,0    c4.868,3.15,11.229,2.714,15.622-1.071l78.508-67.651H98.724z"/>
		<path style="fill:#78777E;" d="M411.899,370.182l45.086,48.903c5.49,5.955,4.293,15.419-2.507,19.819l0,0    c-4.868,3.15-11.23,2.714-15.622-1.071l-78.508-67.651H411.899z"/>
	</g>
	<rect x="7.5" y="69.651" style="fill:#66BAEA;" width="495.623" height="300.531"/>
	<polygon style="fill:#67676B;" points="411.899,370.182 360.348,370.182 391.681,397.182 436.792,397.182  "/>
	<polygon style="fill:#67676B;" points="73.831,397.182 118.942,397.182 150.275,370.182 98.724,370.182  "/>
	<rect x="476.123" y="69.651" style="fill:#3AAAE4;" width="27" height="300.531"/>
	<rect x="7.5" y="333.008" style="fill:#E0E0E0;" width="495.623" height="37.174"/>
	<rect x="476.123" y="333.008" style="fill:#C4C4C4;" width="27" height="37.174"/>
	<g>
		<path d="M503.123,62.15h-391.07c-4.143,0-7.5,3.357-7.5,7.5s3.357,7.5,7.5,7.5h383.57v248.358h-55.226c-4.143,0-7.5,3.357-7.5,7.5    c0,4.143,3.357,7.5,7.5,7.5h55.226v22.173H212.99c-4.143,0-7.5,3.358-7.5,7.5c0,4.143,3.357,7.5,7.5,7.5h144.572l76.399,65.833    c3.81,3.283,8.617,4.958,13.444,4.958c3.873,0,7.759-1.079,11.148-3.272c5.102-3.302,8.465-8.653,9.227-14.683    c0.763-6.029-1.162-12.049-5.282-16.518l-33.485-36.319h74.109c4.143,0,7.5-3.357,7.5-7.5V69.65    C510.623,65.508,507.266,62.15,503.123,62.15z M451.472,424.169c1.734,1.88,1.952,4.782,0.518,6.897    c-1.831,2.703-5.769,3.214-8.238,1.085l-63.212-54.47h28.072L451.472,424.169z"/>
		<path d="M182.99,362.682H15v-22.173h395.397c4.142,0,7.5-3.357,7.5-7.5c0-4.143-3.358-7.5-7.5-7.5H15V77.15h67.053    c4.143,0,7.5-3.357,7.5-7.5s-3.357-7.5-7.5-7.5H7.5c-4.143,0-7.5,3.357-7.5,7.5v300.531c0,4.143,3.357,7.5,7.5,7.5h74.109    l-33.485,36.319c-4.12,4.469-6.045,10.488-5.282,16.518s4.126,11.381,9.229,14.683c3.39,2.193,7.273,3.272,11.147,3.272    c4.826,0,9.635-1.675,13.444-4.958l76.399-65.833h29.929c4.143,0,7.5-3.357,7.5-7.5    C190.49,366.039,187.133,362.682,182.99,362.682z M66.871,432.151c-2.471,2.128-6.406,1.618-8.238-1.085    c-1.434-2.116-1.216-5.017,0.518-6.897l42.859-46.487h28.072L66.871,432.151z"/>
	</g>
</g>















</svg>
